<svg width="115" height="115" viewBox="0 0 115 115" fill="none" xmlns="http://www.w3.org/2000/svg">
<g id="opacity_24px">
<path id="icon/action/opacity_24px" d="M84.6202 38.3083L86.0344 36.8941L86.0331 36.8928L84.6202 38.3083ZM57.4993 11.2354L58.9123 9.81989L57.4993 8.40942L56.0864 9.81989L57.4993 11.2354ZM30.3785 38.3083L28.9656 36.8928L28.9643 36.8941L30.3785 38.3083ZM86.0331 36.8928L58.9123 9.81989L56.0864 12.6508L83.2072 39.7237L86.0331 36.8928ZM56.0864 9.81989L28.9656 36.8928L31.7915 39.7237L58.9123 12.6508L56.0864 9.81989ZM28.9643 36.8941C21.0968 44.7615 17.166 55.2447 17.166 65.3333H21.166C21.166 56.2552 24.7102 46.805 31.7927 39.7225L28.9643 36.8941ZM17.166 65.3333C17.166 75.414 21.0915 86.0434 28.9643 93.9162L31.7927 91.0878C24.7156 84.0106 21.166 74.4193 21.166 65.3333H17.166ZM28.9643 93.9162C36.8264 101.778 47.1633 105.762 57.4993 105.762V101.762C48.1896 101.762 38.8806 98.1757 31.7927 91.0878L28.9643 93.9162ZM57.4993 105.762C67.8354 105.762 78.1723 101.778 86.0344 93.9162L83.206 91.0878C76.1181 98.1757 66.8091 101.762 57.4993 101.762V105.762ZM86.0344 93.9162C93.9072 86.0434 97.8327 75.414 97.8327 65.3333H93.8327C93.8327 74.4193 90.2831 84.0106 83.206 91.0878L86.0344 93.9162ZM97.8327 65.3333C97.8327 55.2447 93.9019 44.7615 86.0344 36.8941L83.206 39.7225C90.2885 46.805 93.8327 56.2552 93.8327 65.3333H97.8327Z" fill="#282E39"/>
</g>
</svg>
