<svg width="115" height="115" viewBox="0 0 115 115" fill="none" xmlns="http://www.w3.org/2000/svg">
<path d="M68.3096 65.2725L68.9349 61.7326L76.0146 62.9832L75.3893 66.5231L68.3096 65.2725Z" fill="#282E39"/>
<path d="M93.6497 93.3036L95.4915 92.6334L94.2624 89.2571L92.4278 89.9255C92.0928 89.3361 91.703 88.7796 91.2634 88.2634L92.5213 86.7666L89.7648 84.4522L88.507 85.9544C87.924 85.6113 87.3097 85.3243 86.6724 85.0973L87.012 83.1675L83.474 82.5439L83.1344 84.4702C82.4564 84.4668 81.7796 84.527 81.1129 84.6499L80.4462 82.8153L77.0699 84.0425L77.7348 85.8754C77.4413 86.0407 77.1544 86.2203 76.8741 86.4144C76.5955 86.6103 76.3655 86.8529 76.1086 87.0703L74.5795 85.7855L72.2687 88.5365L73.7798 89.8069C73.437 90.3892 73.1506 91.0029 72.9245 91.6397L70.9749 91.2929L70.3496 94.8328L72.2813 95.1724C72.2774 95.8492 72.3376 96.5248 72.4609 97.1903L70.6209 97.8605L71.8482 101.237L73.6828 100.568C74.0189 101.158 74.4086 101.715 74.8472 102.232L73.5894 103.727L76.3404 106.038L77.5982 104.536C78.1812 104.879 78.7955 105.166 79.4328 105.393L79.0932 107.323L82.6312 107.945L82.9816 106.015C83.014 106.015 83.0463 106.024 83.0787 106.024C83.724 106.017 84.3675 105.953 85.0013 105.831L85.6716 107.673L89.0479 106.446L88.3723 104.588C88.6634 104.421 88.9616 104.266 89.242 104.07C89.5223 103.875 89.7505 103.634 90.0074 103.416L91.5384 104.701L93.8473 101.948L92.3362 100.678C92.6779 100.097 92.9636 99.4854 93.1897 98.8506L95.1321 99.1938L95.7574 95.6539L93.8276 95.3143C93.8325 94.64 93.7729 93.9667 93.6497 93.3036ZM83.0481 88.0568C83.4698 88.0577 83.8906 88.0949 84.3059 88.1682C86.1178 88.4919 87.7349 89.5022 88.8203 90.9887C89.9058 92.4752 90.3758 94.3231 90.1325 96.1475C89.8892 97.972 88.9513 99.6322 87.5143 100.782C86.0773 101.932 84.2519 102.484 82.4185 102.321C80.5851 102.159 78.8851 101.295 77.6726 99.9106C76.4601 98.5258 75.8286 96.7266 75.9098 94.8878C75.991 93.049 76.7785 91.3125 78.1082 90.0399C79.438 88.7674 81.2076 88.057 83.0481 88.0568Z" fill="#282E39"/>
<path d="M81.0137 96.7031L81.639 93.1633L85.1788 93.7886L84.5535 97.3284L81.0137 96.7031Z" fill="#282E39"/>
<path d="M108.35 65.1291C107.406 63.7728 106.203 62.6172 104.809 61.7292C103.416 60.8412 101.86 60.2385 100.232 59.9559L94.0991 58.8778L83.0142 33.6137C82.421 32.2587 81.5019 31.0714 80.3388 30.1575C79.1757 29.2436 77.8047 28.6316 76.3477 28.3758L30.5849 20.3025C28.239 19.8923 25.8262 20.4289 23.8753 21.7947C21.9244 23.1606 20.5946 25.2441 20.1774 27.5888L12.379 71.8351C12.2559 72.5322 12.2713 73.2468 12.4244 73.938C12.5775 74.6292 12.8652 75.2835 13.2712 75.8635C13.6772 76.4435 14.1934 76.9379 14.7904 77.3183C15.3875 77.6988 16.0536 77.958 16.7508 78.081L18.2368 78.3415C18.581 78.4019 18.9352 78.3606 19.2563 78.2228C19.5774 78.0849 19.8513 77.8564 20.0445 77.5653C21.7833 74.9442 24.2492 72.8875 27.1398 71.6473C30.0304 70.4072 33.2201 70.0375 36.3178 70.5837C39.4154 71.1299 42.2863 72.5681 44.5785 74.722C46.8707 76.876 48.4846 79.652 49.2221 82.7097C49.3044 83.05 49.4843 83.3588 49.7397 83.5982C49.995 83.8376 50.3148 83.9972 50.6596 84.0574L57.0331 85.1822L52.2588 96.3229C52.1629 96.5466 52.1135 96.7874 52.1135 97.0308C52.1135 97.2742 52.1629 97.5151 52.2588 97.7388L56.5713 107.81H48.5141V111.404H70.0766V107.81H62.0195L66.332 97.737C66.4279 97.5133 66.4773 97.2724 66.4773 97.029C66.4773 96.7856 66.4279 96.5448 66.332 96.3211L61.9278 86.0465L67.7802 87.0779C68.1245 87.1405 68.4795 87.1002 68.801 86.9621C69.1225 86.8241 69.3962 86.5944 69.5879 86.3017C71.3264 83.6804 73.7922 81.6235 76.6827 80.3833C79.5732 79.143 82.7629 78.7733 85.8605 79.3195C88.9581 79.8657 91.829 81.304 94.121 83.4581C96.4131 85.6122 98.0266 88.3884 98.7638 91.4462C98.8457 91.7867 99.0255 92.0959 99.2809 92.3356C99.5363 92.5754 99.8562 92.7353 100.201 92.7956L101.687 93.0579C101.997 93.1114 102.311 93.1384 102.625 93.1388C103.892 93.1382 105.118 92.6914 106.089 91.8769C107.059 91.0623 107.711 89.932 107.931 88.6843L110.427 74.5286C110.72 72.9023 110.687 71.2341 110.331 69.6207C109.974 68.0072 109.301 66.4806 108.35 65.1291ZM56.6288 95.2322L59.2954 89.0132L61.962 95.2322H56.6288ZM61.962 98.8259L59.2954 105.045L56.6288 98.8259H61.962ZM79.7205 35.0584L89.8423 58.1249L66.6051 54.028L70.6606 31.028L75.7224 31.9265C76.5954 32.0785 77.4172 32.444 78.1147 32.9904C78.8123 33.5368 79.3639 34.2472 79.7205 35.0584ZM23.7173 28.2195C23.8401 27.5222 24.0991 26.8558 24.4795 26.2586C24.8599 25.6614 25.3542 25.1449 25.9342 24.7388C26.5142 24.3326 27.1686 24.0447 27.8599 23.8915C28.5512 23.7383 29.2659 23.7228 29.9632 23.8459L67.1262 30.3991L63.0688 53.4045L20.5961 45.9151L23.7173 28.2195ZM18.7238 56.5329L20.4937 56.8455L19.872 60.3836L18.1002 60.0709L18.7238 56.5329ZM17.7391 74.6058L17.3797 74.5411C16.9118 74.4557 16.4964 74.1894 16.2234 73.8C15.9503 73.4106 15.8416 72.9293 15.9206 72.4604L16.2333 70.6904L20.7488 71.4847C19.6334 72.4107 18.624 73.4575 17.7391 74.6058ZM36.9423 67.0428C34.289 66.5771 31.5686 66.659 28.9482 67.2836C26.3278 67.9081 23.8628 69.062 21.7048 70.6743L22.1612 68.0868L16.8514 67.1506L17.4767 63.6108L19.2449 63.9234C19.4538 63.959 19.6654 63.9771 19.8774 63.9773C20.7212 63.9758 21.5376 63.6773 22.1835 63.1342C22.8294 62.5912 23.2636 61.8381 23.41 61.0071L24.0317 57.4708C24.114 57.0061 24.1039 56.5297 24.002 56.0689C23.9002 55.608 23.7085 55.1717 23.438 54.785C23.1676 54.3982 22.8236 54.0685 22.4257 53.8147C22.0277 53.5608 21.5837 53.3879 21.119 53.3057L19.3473 52.993L19.9726 49.455L62.4435 56.9443L58.0753 81.7179L52.399 80.7152C51.3321 77.2336 49.3241 74.1144 46.5966 71.7017C43.8691 69.2891 40.5281 67.6768 36.9423 67.0428ZM86.4911 75.7792C82.9041 75.1464 79.212 75.5179 75.823 76.8527C72.4339 78.1874 69.48 80.4334 67.2879 83.3422L61.6134 82.3414L65.9816 57.5679L99.6047 63.4976C100.767 63.6994 101.879 64.1298 102.874 64.764C103.869 65.3981 104.729 66.2234 105.403 67.1919C105.631 67.5399 105.836 67.9031 106.014 68.279L100.748 67.3501C99.8105 67.1848 98.8462 67.3979 98.0661 67.9426C97.286 68.4872 96.7537 69.319 96.5859 70.2556L95.9606 73.7936C95.7951 74.7322 96.0091 75.6981 96.5557 76.4789C97.1023 77.2597 97.9366 77.7914 98.8752 77.957L105.955 79.2148L105.331 82.7529L100.023 81.8167L99.567 84.4042C98.0914 82.1503 96.17 80.2224 93.9212 78.7391C91.6725 77.2558 89.1438 76.2485 86.4911 75.7792ZM106.891 73.9033L106.58 75.6732L99.5005 74.4154L100.126 70.8773L107.024 72.0938C107.04 72.6999 106.996 73.306 106.891 73.9033ZM102.313 89.5181L101.953 89.4534C101.517 88.0748 100.929 86.7489 100.199 85.5003L104.715 86.2963L104.404 88.0644C104.363 88.2975 104.276 88.52 104.148 88.7194C104.021 88.9187 103.855 89.0908 103.66 89.2259C103.466 89.361 103.247 89.4563 103.016 89.5065C102.784 89.5566 102.545 89.5606 102.313 89.5181Z" fill="#282E39"/>
<path d="M30.5469 93.4375H8.98438C7.55469 93.4375 6.18357 94.0054 5.17263 95.0164C4.16169 96.0273 3.59375 97.3984 3.59375 98.8281V106.016C3.59375 107.445 4.16169 108.816 5.17263 109.827C6.18357 110.838 7.55469 111.406 8.98438 111.406H30.5469C31.9766 111.406 33.3477 110.838 34.3586 109.827C35.3696 108.816 35.9375 107.445 35.9375 106.016V98.8281C35.9375 97.3984 35.3696 96.0273 34.3586 95.0164C33.3477 94.0054 31.9766 93.4375 30.5469 93.4375ZM26.8453 102.63L25.5516 107.812H22.0656L23.3055 102.859C23.41 102.442 23.3622 102.003 23.1707 101.619L20.8761 97.0312H24.0458L26.8453 102.63ZM15.9922 101.619L13.6886 97.0312H16.8583L19.6578 102.63L18.3641 107.812H14.8781L16.118 102.859C16.2253 102.443 16.1807 102.004 15.9922 101.619ZM7.1875 106.016V98.8281C7.1875 98.3516 7.37681 97.8945 7.71379 97.5575C8.05077 97.2206 8.50781 97.0312 8.98438 97.0312H9.67078L12.4703 102.63L11.1766 107.812H8.98438C8.50781 107.812 8.05077 107.623 7.71379 107.286C7.37681 106.949 7.1875 106.492 7.1875 106.016ZM32.3438 106.016C32.3438 106.492 32.1544 106.949 31.8175 107.286C31.4805 107.623 31.0234 107.812 30.5469 107.812H29.2531L30.493 102.859C30.5975 102.442 30.5497 102.003 30.3582 101.619L28.0636 97.0312H30.5469C31.0234 97.0312 31.4805 97.2206 31.8175 97.5575C32.1544 97.8945 32.3438 98.3516 32.3438 98.8281V106.016Z" fill="#282E39"/>
<path d="M16.1719 82.6562H19.7656V89.8438H16.1719V82.6562Z" fill="#282E39"/>
<path d="M23.4111 89.4502L25.2114 82.2639L28.6956 83.1368L26.8953 90.323L23.4111 89.4502Z" fill="#282E39"/>
<path d="M7.28125 83.0723L10.7654 82.1994L12.5657 89.3857L9.08152 90.2585L7.28125 83.0723Z" fill="#282E39"/>
</svg>
