<svg width="115" height="115" viewBox="0 0 115 115" fill="none" xmlns="http://www.w3.org/2000/svg">
<g id="restaurant_menu_24px">
<path id="icon/maps/restaurant_menu_24px" fill-rule="evenodd" clip-rule="evenodd" d="M17.2947 12.9288L18.7089 14.341L52.3464 47.9306L53.7626 49.3448L52.3474 50.76L38.787 64.3204L37.3728 62.9062L35.9603 64.3221L15.8832 44.293L15.877 44.2868L15.877 44.2867C7.62943 35.9863 7.62296 22.6005 15.8815 14.342L17.2947 12.9288ZM37.3711 60.0795L48.1038 49.3468L17.3783 18.6651C12.0526 25.3913 12.4906 35.2006 18.7114 41.4643C18.7124 41.4653 18.7134 41.4664 18.7144 41.4674L37.3711 60.0795ZM84.8955 12.2012C90.6748 11.438 96.3762 12.8533 100.407 16.8846C104.462 20.939 105.879 26.6522 105.109 32.4347C104.339 38.214 101.385 44.179 96.5262 49.038C88.9059 56.6583 78.4632 59.5935 70.3295 56.5952L65.6446 61.28L97.197 92.8325L98.6112 94.2467L97.197 95.6609L90.4408 102.417L89.0266 103.831L87.6124 102.417L56.0578 70.8627L24.4575 102.371L23.0433 103.781L21.6311 102.369L14.8748 95.613L13.4606 94.1988L14.8748 92.7846L60.6969 46.9626C57.6985 38.8288 60.6337 28.3861 68.254 20.7658L68.2577 20.7621C73.1411 15.9042 79.1176 12.9642 84.8955 12.2012ZM71.0806 23.5961C63.8812 30.7968 61.9157 40.2242 64.8699 46.5903L65.4582 47.858L64.4699 48.8463L19.1175 94.1988L23.0474 98.1287L54.6477 66.62L56.062 65.2099L57.4741 66.6221L89.0266 98.1745L92.9544 94.2467L61.4019 62.6943L59.9877 61.28L61.4019 59.8658L68.4457 52.8221L69.434 51.8338L70.7018 52.4221C77.0684 55.3766 86.4968 53.4105 93.6978 46.2096C97.9908 41.9165 100.5 36.7408 101.144 31.9066C101.787 27.0755 100.568 22.7024 97.579 19.713C94.6145 16.7485 90.2533 15.5284 85.4191 16.1667C80.5841 16.8052 75.3968 19.3031 71.0806 23.5961Z" fill="#282E39"/>
</g>
</svg>
