<svg width="35" height="35" viewBox="0 0 35 35" fill="none" xmlns="http://www.w3.org/2000/svg">
<path d="M5.8125 29.1875H13.0906V22.1219H18.5625V15.0563H24.0344V7.9375H29.1875V5.8125H21.9094V12.8781H16.4375V19.9437H10.9656V27.0625H5.8125V29.1875ZM3.93188 34.5C2.95438 34.5 2.13767 34.1728 1.48175 33.5183C0.825838 32.8638 0.498588 32.0463 0.500005 31.066V3.934C0.500005 2.95508 0.827962 2.13837 1.48388 1.48387C2.1398 0.829375 2.9565 0.501417 3.934 0.5H31.0681C32.0456 0.5 32.8623 0.827958 33.5183 1.48387C34.1742 2.13979 34.5014 2.9565 34.5 3.934V31.0681C34.5 32.0456 34.1728 32.8623 33.5183 33.5183C32.8638 34.1742 32.0463 34.5014 31.066 34.5H3.93188ZM3.93188 32.375H31.0681C31.394 32.375 31.6936 32.239 31.967 31.967C32.2404 31.695 32.3764 31.3947 32.375 31.066V3.934C32.375 3.60675 32.239 3.30642 31.967 3.033C31.695 2.75958 31.3947 2.62358 31.066 2.625H3.934C3.60675 2.625 3.30642 2.761 3.033 3.033C2.75959 3.305 2.62359 3.60533 2.625 3.934V31.0681C2.625 31.394 2.761 31.6936 3.033 31.967C3.305 32.2404 3.60463 32.3764 3.93188 32.375Z" fill="#282E39"/>
</svg>
